<?xml version="1.0" standalone="no"?>
<!DOCTYPE svg PUBLIC "-//W3C//DTD SVG 20010904//EN"
 "http://www.w3.org/TR/2001/REC-SVG-20010904/DTD/svg10.dtd">
<svg version="1.0" xmlns="http://www.w3.org/2000/svg"
 width="195.000000pt" height="228.000000pt" viewBox="0 0 195.000000 228.000000"
 preserveAspectRatio="xMidYMid meet">

<g transform="translate(0.000000,228.000000) scale(0.100000,-0.100000)"
fill="#000000" stroke="none">
<path d="M971 2273 c1 -5 1 -20 0 -35 -1 -22 -6 -28 -22 -28 -39 0 -160 -49
-202 -83 -56 -43 -174 -163 -203 -207 -13 -19 -35 -51 -49 -72 -33 -50 -49
-148 -41 -266 5 -87 37 -240 65 -314 11 -30 26 -36 34 -15 3 6 6 -6 6 -29 1
-22 4 -44 8 -47 3 -4 8 -19 9 -33 2 -15 6 -34 10 -43 4 -9 8 -18 9 -21 1 -3 4
-12 8 -20 3 -8 11 -33 18 -55 18 -60 47 -113 96 -179 24 -32 42 -63 40 -70 -3
-7 -24 -18 -48 -26 -24 -8 -63 -22 -87 -32 -24 -10 -83 -22 -130 -28 -48 -5
-113 -19 -144 -30 -32 -11 -64 -20 -73 -20 -25 0 -92 -68 -117 -118 -13 -26
-28 -47 -33 -48 -6 -1 -13 -16 -16 -35 -7 -36 -40 -169 -64 -254 -7 -27 -17
-76 -20 -107 l-7 -58 310 0 311 0 14 53 c9 28 27 106 42 172 14 66 32 140 38
165 6 25 10 48 9 53 -2 6 4 7 35 7 4 0 6 -38 4 -85 -1 -47 0 -85 4 -85 10 0
27 20 65 77 19 29 38 53 43 53 22 1 -7 -196 -34 -225 -21 -23 -74 -128 -82
-162 l-5 -23 144 0 144 0 0 28 c-1 15 -7 63 -15 107 -23 126 -22 133 36 200
77 91 78 96 33 139 -34 30 -44 35 -74 30 -56 -9 -93 -26 -122 -55 l-26 -27 2
44 c2 24 1 44 -3 44 -3 0 -6 32 -6 70 1 39 -3 70 -7 70 -4 0 -5 7 -2 15 4 8
-1 26 -10 40 -27 41 -18 42 18 3 36 -40 49 -48 40 -23 -4 8 -1 15 5 15 7 0 15
-8 18 -17 11 -29 40 -56 47 -44 5 7 15 7 31 1 31 -12 32 -3 4 27 -17 17 -19
23 -8 26 152 42 220 78 312 164 9 9 31 18 48 19 28 2 30 0 25 -22 -6 -24 0
-30 20 -16 12 8 44 75 44 92 0 6 4 9 9 5 6 -3 2 -29 -10 -62 -10 -31 -17 -59
-14 -61 3 -3 5 -1 5 4 1 5 7 -9 15 -31 17 -46 14 -68 -25 -185 -76 -228 -118
-332 -131 -324 -5 3 -6 -1 -3 -9 3 -8 -13 -69 -35 -137 -23 -67 -41 -124 -41
-126 0 -2 160 -4 355 -4 l355 0 0 294 0 295 -36 13 -37 13 6 190 c5 171 11
243 22 253 2 2 13 -1 24 -8 20 -10 21 -8 21 34 l0 46 -29 -18 c-125 -75 -210
-155 -277 -260 -24 -37 -39 -51 -46 -44 -10 10 8 53 46 106 30 42 133 146 144
146 5 0 17 9 27 20 10 11 27 23 39 26 11 4 38 18 59 31 l37 23 0 76 0 75 -22
-15 c-26 -18 -38 -20 -38 -6 0 5 14 16 30 25 l30 16 0 474 0 475 -490 0 c-269
0 -489 -3 -489 -7z m-27 -711 c-1 -15 -5 -35 -9 -44 -10 -26 2 -22 35 12 17
17 30 27 30 23 0 -4 13 -15 29 -25 28 -16 30 -15 52 8 29 31 47 30 59 -2 13
-32 -2 -46 -75 -70 -27 -9 -55 -20 -61 -25 -5 -4 -20 -6 -32 -2 -12 3 -22 1
-22 -5 0 -22 14 -22 175 7 60 11 115 3 115 -15 0 -7 6 -11 13 -9 7 3 20 -16
34 -50 27 -70 24 -133 -11 -206 -31 -67 -32 -85 -6 -101 12 -8 20 -23 19 -38
0 -14 -3 -19 -6 -12 -8 19 -23 14 -23 -8 0 -11 -5 -20 -12 -20 -9 0 -9 -3 0
-12 18 -18 15 -28 -8 -28 -15 0 -20 -7 -20 -26 0 -31 -66 -134 -86 -134 -8 0
-17 -7 -20 -14 -8 -21 -98 -49 -132 -41 -29 6 -76 50 -100 93 -17 30 4 38 53
22 40 -13 81 -6 55 10 -11 7 -6 13 22 24 36 15 128 112 118 125 -3 3 -58 4
-122 2 -98 -2 -119 -1 -124 12 -3 9 -13 13 -25 10 -10 -3 -19 -2 -19 2 0 15
51 55 69 55 11 0 22 7 25 16 5 13 1 15 -16 11 -34 -8 -62 16 -49 41 13 25 25
143 18 174 -12 44 -38 63 -92 64 -102 3 -115 4 -115 14 0 13 65 13 108 1 26
-8 34 -7 39 5 9 23 -8 34 -66 41 -49 6 -52 7 -49 32 2 16 8 25 18 24 8 -2 36
-7 61 -11 43 -8 49 -7 80 21 22 19 33 36 31 50 -2 11 2 31 9 44 13 24 13 24
24 3 6 -11 10 -33 9 -48z m272 -14 c-1 -13 2 -29 7 -35 7 -9 4 -13 -7 -13 -12
0 -16 9 -16 35 0 19 4 35 9 35 4 0 7 -10 7 -22z m354 -103 c0 -2 -7 -36 -15
-76 -18 -85 -53 -139 -91 -139 -26 0 -27 5 -18 62 6 34 9 37 35 34 16 -2 26 1
23 5 -3 5 -12 9 -20 9 -15 0 -17 9 -8 34 8 21 21 20 27 -1 3 -10 5 -4 6 14 1
34 16 52 24 31 3 -7 6 -1 6 14 1 20 5 26 16 22 8 -4 15 -8 15 -9z m-830 -105
c0 -5 -4 -10 -10 -10 -5 0 -10 5 -10 10 0 6 5 10 10 10 6 0 10 -4 10 -10z m99
1 c19 -12 -2 -64 -33 -85 -52 -33 -130 -39 -91 -6 9 7 13 20 10 29 -5 16 33
41 62 41 8 0 16 7 19 15 7 17 13 18 33 6z m1014 -68 c4 -3 -21 -23 -56 -44
-34 -20 -90 -63 -124 -94 -35 -31 -63 -51 -63 -45 0 16 47 71 79 92 14 10 53
36 86 58 64 42 68 44 78 33z m-1035 -70 c-2 -5 -10 -20 -17 -35 -20 -39 -2
-78 35 -78 l27 0 -36 -27 c-19 -16 -37 -38 -40 -50 -2 -12 0 -20 4 -17 5 3 14
-7 19 -21 8 -20 7 -30 -5 -41 -8 -8 -11 -22 -8 -32 6 -15 5 -15 -11 -3 -42 35
-86 142 -90 222 -2 34 1 38 38 54 23 9 48 20 56 25 19 11 33 12 28 3z m770
-140 c-1 -5 -21 -34 -42 -65 -38 -57 -56 -71 -56 -44 0 17 78 116 92 116 5 0
8 -3 6 -7z m259 -203 c4 -8 10 19 13 60 5 56 7 33 8 -90 1 -91 -1 -175 -4
-187 -6 -22 -7 -22 -38 -6 -17 8 -52 30 -77 48 -25 18 -56 36 -68 40 -12 3
-29 18 -38 31 -16 24 -15 27 38 102 58 84 78 104 96 97 7 -2 10 2 6 11 -6 17
8 19 25 2 9 -9 12 -8 13 5 5 65 13 53 16 -23 2 -41 7 -82 10 -90z m-788 108
c-46 -38 -165 -46 -176 -12 -4 13 88 30 155 30 42 -1 42 -1 21 -18z m-222 -44
c-3 -3 -12 -4 -19 -1 -8 3 -5 6 6 6 11 1 17 -2 13 -5z m183 -13 c0 -14 -18
-23 -30 -16 -6 4 -8 11 -5 16 8 12 35 12 35 0z m-222 -331 c-10 -55 -35 -116
-44 -107 -3 3 2 26 10 51 9 26 16 54 16 62 0 17 20 58 25 52 2 -1 -1 -28 -7
-58z"/>
<path d="M1034 1387 c-19 -11 -18 -45 2 -64 11 -12 18 -13 27 -4 8 8 7 11 -6
11 -9 0 -17 6 -17 14 0 24 18 28 30 6 14 -25 70 -29 70 -4 0 13 3 14 15 4 16
-13 45 -7 45 9 0 5 -10 13 -21 16 -15 5 -18 10 -10 15 17 10 -117 7 -135 -3z"/>
<path d="M1010 553 c0 -6 5 -15 10 -18 6 -4 8 -11 5 -16 -4 -5 -1 -9 4 -9 15
0 14 13 -4 36 -8 10 -15 14 -15 7z"/>
<path d="M815 240 c3 -5 8 -10 11 -10 2 0 4 5 4 10 0 6 -5 10 -11 10 -5 0 -7
-4 -4 -10z"/>
</g>
</svg>
